Patient4_TMGait_0pt7_02_left_19_EMG.mot
version=1
nRows=23
nColumns=33
inDegrees=no
endheader
time	1LAddLong	2LGlutMax	3LGlutMed	4LIliopsoas	5LSemiMemb	6LBicFemLong	7LRecFem	8LVastMed	9LVastLat	10LGasMed	11LTibAnt	12lTibPost	13LPeroneusLong	14LSol	15LExtDigLong	16LFlexDigLong	17RAddLong	18RGlutMax	19RGlutMed	20RIliopsoas	21RSemiMemb	22RBicFemLong	23RRecFem	24RVastMed	25RVastLat	26RGasMed	27RTibAnt	28RTibPost	29RPeroneusLong	30RSol	31RExtDigLong	32RFlexDigLong
21.905	0.027313	1.0971	0.29312	0.013275	0.032959	-0.21896	0.61264	0.024261	0.31418	0.086212	0.030212	0.037384	0.066376	0.018616	0.063171	0.25269	0.18402	0.4068	0.010529	-0.16541	-0.080719	-0.049896	0.93811	-0.17532	-0.040894	-0.00061	0.048828	-0.007324	-0.093231	0.01709	-0.002441	-0.01358
21.906	0.025482	0.99243	0.12039	0.029907	-0.046692	0.033112	0.83221	0.016327	0.099487	0.18829	0.015717	0.010071	0.058594	-0.098877	0.11139	0.19257	0.13229	0.40955	-0.005035	-0.14328	-0.07019	-0.050354	0.96435	-0.18799	-0.053406	-0.005951	-0.047455	-0.013123	0.05661	-0.012665	-0.003357	-0.007782
21.907	0.006866	0.93658	-0.050201	0.019684	-0.13397	0.17303	0.40848	0.011139	-0.32944	-0.045166	0.021057	0.20584	0.048218	-0.17471	0.091705	-0.49164	0.13321	0.48309	-0.28809	-0.043488	-0.099335	-0.07431	0.97824	-0.19867	-0.039063	-0.003967	0.048981	-0.010529	-0.060883	-0.037384	-0.001678	-0.009155
21.908	0.001678	0.93582	-0.082855	-0.000153	-0.09613	0.075073	-0.081024	0.016327	-0.83466	0.022736	-0.002899	0.097198	0.070343	0.022125	0.10346	0.43579	0.069275	0.44998	-0.2066	0.22629	-0.062714	-0.050201	0.95901	-0.15076	-0.033875	0.001373	-0.39444	-0.009003	0.019531	-0.11963	-0.003052	-0.002594
21.909	-0.00824	0.94986	-0.13931	0.00061	-0.0737	0.055389	-0.39047	0.016174	-0.90057	-0.036621	-0.013123	-0.049133	0.013123	0.2153	0.067749	0.1297	-0.007782	0.44708	-0.086212	0.46753	-0.025635	-0.015564	0.93735	-0.1033	-0.027618	0.018921	-0.70862	-0.014801	0.14069	-0.28641	-0.004578	0.001373
21.91	-0.002747	0.88242	-0.27603	-0.002441	-0.078583	0.032043	-0.65842	0.006104	-0.6279	-0.040436	-0.007629	0.082855	-0.011139	0.20477	0.024414	-0.69977	-0.060577	0.44266	0.043793	0.37201	-0.030975	-0.013428	0.94803	-0.099335	-0.013275	0.026398	-0.43228	-0.006256	0.091705	-0.32166	-0.004425	-0.001831
21.911	0.004272	0.8464	-0.098114	-0.005646	-0.079498	0.096741	-0.82733	0.006256	-0.44434	0.011902	0.012817	0.10315	-0.012665	0.084991	0.045776	0.07782	-0.083618	0.51193	-0.066833	0.22858	-0.027008	-0.038147	0.94818	-0.17075	-0.032806	0.023651	-0.15427	-0.012665	0.14557	-0.24521	-0.006409	-0.002594
21.912	0.016174	0.85983	-0.14053	-0.023041	-0.15442	0.23865	-0.92773	0.003662	-0.37338	-0.077362	0.028687	0.10071	-0.002899	0.15121	0.050964	0.89752	-0.10223	0.53543	-0.057373	0.22369	-0.063171	-0.071716	0.96878	-0.12466	-0.011597	0.013275	0.18112	-0.011902	0.12451	-0.057526	-0.005341	-0.003052
21.913	0.023651	0.86533	-0.22873	-0.003662	-0.12192	0.31448	-0.96252	0.007324	-0.27985	-0.036774	0.064087	0.08255	0.007629	-0.21133	0.063477	-0.25604	-0.13672	0.56107	-0.1709	0.30182	-0.08255	-0.12421	0.91415	-0.056152	-0.018463	0.014343	0.35873	-0.009613	-0.007782	0.11368	-0.009003	-0.007019
21.914	0.017548	1.0217	-0.23315	0.00824	-0.020447	0.47653	-0.98709	0.010376	-0.23254	0.023499	0.15549	0.10269	0.021515	-0.33844	0.082703	-0.44647	-0.19287	0.68558	-0.18753	0.30075	-0.088196	-0.091248	0.95917	0.019989	-0.029907	0.002441	-0.19821	-0.012817	0	0.27298	-0.003662	-0.021667
21.915	0.014191	1.3643	-0.074158	0.011749	-0.019226	0.34775	-1.0199	-0.009155	-0.21072	0.069122	0.14267	0.060883	0.10422	-0.30441	0.058136	1.0315	-0.21652	0.76477	0.064697	0.19272	-0.12039	-0.088043	0.93613	0.10864	0.002594	-0.002441	-0.39032	-0.006409	-0.00824	0.40237	-0.003357	-0.021667
21.916	0.036011	1.6623	0.20905	0.000153	-0.048065	0.077972	-1.0457	-0.007019	-0.18356	-0.1091	0.18524	0.11139	0.081787	-0.06134	0.075836	-0.40009	-0.2417	0.83572	0.18692	0.097809	-0.12054	-0.049591	0.91232	0.11307	0.015411	-0.007477	-0.12116	-0.006256	-0.03479	0.39841	-0.007172	-0.016022
21.917	0.026093	1.7905	0.17364	-0.005951	-0.02243	0.061188	-1.0344	-0.009918	-0.15869	-0.34439	0.17029	0.11398	0.00412	0.041046	0.13031	0.34912	-0.20935	0.89783	0.032654	-0.039978	-0.10315	0.04425	0.91065	0.13245	0.029144	0.000458	0.078278	-0.004272	-0.017853	0.40741	-0.003815	-0.019226
21.918	0.12589	1.9423	0.16144	0.003967	0.067291	0.008545	-0.99762	-0.011902	-0.13245	-0.33875	0.036163	0.12116	-0.018311	0.068665	0.1413	-0.60638	-0.22003	0.96329	-0.26535	-0.061493	-0.093231	0.10605	0.86716	0.17777	0.010071	-0.001984	-0.035706	-0.000458	-0.041962	0.34622	-0.002899	-0.023651
21.919	0.067902	2.1129	0.10559	0.007782	0.090637	0.099182	-0.90851	-0.002289	-0.14023	-0.16449	-0.090485	0.066833	-0.076599	0.26199	0.045471	-0.042877	-0.23254	0.9964	-0.20767	-0.16708	-0.079041	0.14481	0.94467	0.18082	-0.003967	-0.000763	-0.069427	0.000153	-0.0177	0.17364	-0.004883	-0.021973
21.92	0.020905	2.3932	0.13809	-0.005951	0.069275	-0.16251	-0.86395	0.010529	-0.13763	-0.008392	-0.16403	0.19989	0.012817	0.06958	-0.059509	0.20035	-0.13275	1.0648	0.11536	-0.20874	-0.10254	0.075378	1.0127	0.060577	-0.02655	0.000305	-0.28625	-0.002136	-0.037079	0.07019	0.001831	-0.018921
21.921	0.023956	2.505	0.077057	0.007324	0.023499	-0.24948	-0.81528	0.008087	-0.10132	0.16678	-0.11429	0.18036	0.058441	-0.025177	-0.095215	0.37018	-0.065765	1.088	0.12512	-0.18768	-0.077972	0.048523	1.046	-0.000305	-0.016327	-0.003815	-0.24475	-0.001984	-0.075531	0.064087	-0.003662	-0.023651
21.922	0.023499	2.3366	0.054626	-0.00061	-0.018311	-0.35355	-0.82642	0.007782	-0.079651	0.18707	-0.094147	-0.056152	0.075531	-0.049286	-0.112	0.31082	-0.009766	1.162	0.028381	-0.1535	-0.029449	0.050507	1.033	0.056	-0.023956	-0.006561	0.09201	-0.001984	-0.081787	0.030975	-0.003815	-0.02243
21.923	0.014648	2.1002	0.10101	-0.014496	-0.029602	-0.15808	-0.78156	0.006256	-0.026855	0.10635	-0.048065	0.005341	0.034943	-0.6163	-0.005951	-0.27847	0.005951	1.2506	-0.13657	-0.027924	-0.052032	0.060272	1.0158	0.019226	-0.008698	0.001526	0.028229	0.000916	-0.069122	0.070801	-0.002594	-0.018463
21.924	0.006409	2.0177	0.1915	0.011902	-0.038605	0.004425	-0.76416	0.011749	0.028839	0.015106	0.016327	0.015564	-0.032959	-0.5339	0.00946	-0.16907	-0.011597	1.394	-0.47195	0.010223	-0.089417	0.051575	0.99594	0.05127	-0.011444	0.00473	0.13428	-0.000763	-0.060883	0.093689	-0.005188	-0.01236
21.925	0.010071	1.8785	0.16052	0.002747	-0.055237	0.073547	-0.75653	0.020447	0.092468	-0.023346	0.001831	-0.003204	0.050049	-0.45975	0.21957	-0.086365	-0.016479	1.5222	-0.34912	0.023499	-0.11856	0.088806	0.98984	-0.021515	-0.02182	0.010223	0.054474	-0.002899	0.024261	-0.072937	-0.000458	-0.007782
21.926	0.005188	1.6684	0.053253	-0.005646	-0.07782	0.066071	-0.70664	0.016937	0.15884	-0.083008	0.058136	-0.006104	0.12833	-0.60303	-0.071106	0.30014	-0.037384	1.5639	-0.26443	0.070801	-0.12512	0.10025	0.91278	-0.078278	-0.025482	0.006714	-0.028992	-0.002594	0.066376	-0.012207	-0.003052	-0.005798
21.927	0.013733	1.357	-0.080109	-0.002289	-0.018768	0.10361	-0.64651	-0.002441	0.20218	-0.024872	0.10071	-0.006561	0.052948	-0.24902	0.24231	0.085449	-0.053558	1.5688	-0.60043	0.13473	-0.16068	0.074768	0.86212	-0.121	-0.021515	-0.000763	0.16678	0.001678	0.058899	0.079498	-0.002747	-0.001678
